<svg id="Layer_1" data-name="Layer 1" xmlns="http://www.w3.org/2000/svg" viewBox="0 0 873.58 179.99"><defs><style>.cls-1{fill:#003138;}.cls-2{fill:#ea5435;}.cls-3{fill:#1d1d1b;}.cls-4{fill:#fff;}.cls-5{fill:#04652e;}.cls-6{fill:#54af32;}.cls-7{fill:#8dccbb;}.cls-8{fill:#ee7534;}</style></defs><title>Artboard 5</title><path class="cls-1" d="M276.37,84.25a23.14,23.14,0,0,1-.85,2.44c-.41,1.06-.89,2.26-1.41,3.6s-1.12,2.76-1.76,4.25-1.27,3-1.87,4.39a3.61,3.61,0,0,1-.94,1.42,3.85,3.85,0,0,1-2.18.51l-16.56.28-2,25.18a2.94,2.94,0,0,1-.28,1,1.78,1.78,0,0,1-.68.76c-.11.08-.56.3-1.33.66s-1.75.78-2.92,1.27l-3.86,1.59c-1.4.57-2.77,1.08-4.14,1.56s-2.6.87-3.74,1.19a10.49,10.49,0,0,1-2.66.48,4.82,4.82,0,0,1-2.07-.43,1.69,1.69,0,0,1-.94-1.72q-.06-2.83.15-6.27c.13-2.28.29-4.61.48-7s.39-4.69.62-7,.42-4.37.57-6.26l.39-4.76a62.08,62.08,0,0,1-6.8-.26c-1.36-.17-2-.61-2-1.33a3.69,3.69,0,0,1,.85-1.93c.79-1.09,1.69-2.42,2.69-4s2-3.06,2.89-4.53,1.74-2.78,2.44-3.91,1.15-1.84,1.33-2.1l1.08-15.59c-.72,0-1.34,0-1.87,0l-1.44,0-1.22.06c-.38,0-.78,0-1.19,0a17.37,17.37,0,0,1-3.89-.31c-.77-.21-1.16-.6-1.16-1.17a4.9,4.9,0,0,1,.68-1.64c.45-.83,1-1.79,1.67-2.86s1.38-2.21,2.16-3.4,1.46-2.3,2.07-3.32L230,49.5l25.79-.91c3.33-.11,6.64-.24,9.92-.37l9.1-.37c2.78-.11,5.17-.22,7.18-.31l4.19-.2.31,0a1.76,1.76,0,0,1,.54.17,1.51,1.51,0,0,1,.8,1.45,11.39,11.39,0,0,1-.8,2.26c-.53,1.29-1.28,3.2-2.27,5.73l-2.49,6.58a4.58,4.58,0,0,1-.91,1.47,3.36,3.36,0,0,1-2.15.57c-1.29,0-2.59.09-3.91.17l-4.09.22L254,66.84c-.23,1.48-.39,2.57-.48,3.29s-.15,1.32-.17,1.79,0,.94,0,1.42,0,1.21-.06,2.24c0,.71-.08,1.32-.14,1.81s-.11,1-.17,1.44-.11,1-.17,1.51-.1,1.19-.14,2l7.34-.23,6.63-.22,5.25-.2q2.21-.09,3.12-.09a2.11,2.11,0,0,1,1,.34,1.43,1.43,0,0,1,.56,1.31A3.39,3.39,0,0,1,276.37,84.25Z"/><path class="cls-1" d="M312.88,133.8a35.12,35.12,0,0,1-14-2.61,30.11,30.11,0,0,1-10.12-6.94,28.6,28.6,0,0,1-6.12-10,34.15,34.15,0,0,1-2-11.71,33.68,33.68,0,0,1,2-11.54,33.21,33.21,0,0,1,5.56-9.8A31.79,31.79,0,0,1,296.67,74a32.2,32.2,0,0,1,11-3.94c.6,0,.91-.17.91-.4a4.34,4.34,0,0,0-.15-1.16,4,4,0,0,1-.14-.93,1.25,1.25,0,0,1,.23-.86.7.7,0,0,1,.51-.22,60.22,60.22,0,0,1,18.42,2.46,34.18,34.18,0,0,1,12.36,6.72,25,25,0,0,1,6.92,10,35.15,35.15,0,0,1,2.15,12.41,38,38,0,0,1-2.83,15.08,32.84,32.84,0,0,1-7.74,11.23,33.58,33.58,0,0,1-11.45,7A40.11,40.11,0,0,1,312.88,133.8ZM302.4,101.94a28.11,28.11,0,0,0,.65,6.06,17.21,17.21,0,0,0,2.15,5.45,12,12,0,0,0,3.94,3.94,11.41,11.41,0,0,0,6.07,1.5,10.52,10.52,0,0,0,4.56-1.16,11.61,11.61,0,0,0,3.38-2.72,16,16,0,0,0,2.35-3.77A25.49,25.49,0,0,0,327,106.9a33.58,33.58,0,0,0,.77-4.4,37.75,37.75,0,0,0,.22-3.91,19.61,19.61,0,0,0-.87-5.78,15.45,15.45,0,0,0-2.58-5,13.33,13.33,0,0,0-4.23-3.49A12.35,12.35,0,0,0,314.47,83a8.41,8.41,0,0,0-5.72,2A15,15,0,0,0,305,90a25.85,25.85,0,0,0-2,6.2A30.81,30.81,0,0,0,302.4,101.94Z"/><path class="cls-1" d="M387.32,133.8a35.12,35.12,0,0,1-14-2.61,30.11,30.11,0,0,1-10.12-6.94,28.6,28.6,0,0,1-6.12-10,34.15,34.15,0,0,1-2-11.71A33.68,33.68,0,0,1,357,91a33,33,0,0,1,5.56-9.8A31.79,31.79,0,0,1,371.11,74a32.12,32.12,0,0,1,11-3.94c.6,0,.9-.17.9-.4a4.34,4.34,0,0,0-.14-1.16,4,4,0,0,1-.14-.93,1.25,1.25,0,0,1,.23-.86.7.7,0,0,1,.51-.22,60.22,60.22,0,0,1,18.42,2.46,34.18,34.18,0,0,1,12.36,6.72,25,25,0,0,1,6.92,10,35.37,35.37,0,0,1,2.15,12.41,38,38,0,0,1-2.83,15.08,32.84,32.84,0,0,1-7.74,11.23,33.58,33.58,0,0,1-11.45,7A40.11,40.11,0,0,1,387.32,133.8Zm-10.49-31.86a28.12,28.12,0,0,0,.66,6.06,17.21,17.21,0,0,0,2.15,5.45,12,12,0,0,0,3.94,3.94,11.41,11.41,0,0,0,6.07,1.5,10.55,10.55,0,0,0,4.56-1.16,11.57,11.57,0,0,0,3.37-2.72,16,16,0,0,0,2.36-3.77,25.49,25.49,0,0,0,1.47-4.34,35.33,35.33,0,0,0,.77-4.4,37.75,37.75,0,0,0,.22-3.91,19.3,19.3,0,0,0-.88-5.78,15.07,15.07,0,0,0-2.58-5,13.18,13.18,0,0,0-4.22-3.49A12.35,12.35,0,0,0,388.91,83a8.45,8.45,0,0,0-5.73,2,14.94,14.94,0,0,0-3.71,5,25.42,25.42,0,0,0-2,6.2A30.91,30.91,0,0,0,376.83,101.94Z"/><path class="cls-1" d="M493.28,125.13a1.21,1.21,0,0,1,0,.25,1.23,1.23,0,0,0,0,.26,2.83,2.83,0,0,0,0,.45,2,2,0,0,1,0,.34,1,1,0,0,1-.37.82,5.55,5.55,0,0,1-1.9.71l-15.19,4.93-1.64.57a6.21,6.21,0,0,1-2,.34,2.41,2.41,0,0,1-1.39-.4,1.64,1.64,0,0,1-.59-1.47q0-1,0-1.65c0-.41,0-.8.05-1.16s.06-.74.12-1.16.12-1,.2-1.64a41.88,41.88,0,0,1-8.76,5.44,22.79,22.79,0,0,1-9.5,2,18.19,18.19,0,0,1-9.67-2.58,22.75,22.75,0,0,1-7.11-6.92,33.42,33.42,0,0,1-4.4-9.92,44.67,44.67,0,0,1-1.5-11.65,38.6,38.6,0,0,1,2.58-14.37,34.14,34.14,0,0,1,7-11.11,31.21,31.21,0,0,1,10.32-7.15,31.55,31.55,0,0,1,12.53-2.52,13.59,13.59,0,0,1,6.83,1.87,28.42,28.42,0,0,1,6.15,4.82q.18-2.77.4-6t.45-6.63c.15-2.25.31-4.47.46-6.66s.28-4.2.4-6a1,1,0,0,1,.36-.82,5.75,5.75,0,0,1,1.9-.71L495,43.6a9.35,9.35,0,0,0,1.65-.51,5.55,5.55,0,0,1,2-.4A3,3,0,0,1,500,43a1.35,1.35,0,0,1,.65,1.31q0,.1,0,.48c0,.25,0,.41,0,.48ZM473.5,98.59c.11-1.21.23-2.47.37-3.8s.29-2.7.48-4.13a13.94,13.94,0,0,0-3.69-5.53,8.6,8.6,0,0,0-6-2.13,9,9,0,0,0-5.95,2,15.23,15.23,0,0,0-3.92,5,24.43,24.43,0,0,0-2.12,6.2,29.47,29.47,0,0,0-.65,5.76,50.82,50.82,0,0,0,.36,6.06,27.73,27.73,0,0,0,1.2,5.45,10.91,10.91,0,0,0,2.18,3.94,4.39,4.39,0,0,0,3.4,1.5,15.18,15.18,0,0,0,8.11-2.27,16.94,16.94,0,0,0,5-5.1Z"/><path class="cls-1" d="M577.13,72a42.19,42.19,0,0,1-.93,8.73,28.71,28.71,0,0,1-2.5,6.94,25.27,25.27,0,0,1-3.91,5.56,37.51,37.51,0,0,1-5.24,4.62A42.4,42.4,0,0,1,552.13,104,46,46,0,0,1,538.58,106c-.76,0-1.5,0-2.24-.06s-1.48-.09-2.24-.17l-1.87,20.7-1,1.75a5.85,5.85,0,0,1-1.93.91q-1.82.67-4.54,1.59l-3.57,1.19c-1.13.41-2.13.79-3,1.13s-1.68.65-2.44.91a16.61,16.61,0,0,1-2.21.6,12.72,12.72,0,0,1-2.27.19,1.87,1.87,0,0,1-1.25-.39,2,2,0,0,1-.45-1.53l.62-9.7c.12-1.93.26-3.86.43-5.81s.33-4.17.48-6.66l1.08-13.55c.23-2.76.43-5.52.62-8.28s.38-5.38.57-7.88.36-4.83.51-7,.28-4.07.4-5.7c-2,.46-3.68.79-4.91,1a18.23,18.23,0,0,1-2.8.32c-.8,0-1.19-.34-1.19-1,.52-1.86,1-3.67,1.47-5.45.41-1.51.84-3.07,1.28-4.67s.8-3,1.1-4.06a5.57,5.57,0,0,1,.65-1.56,2.66,2.66,0,0,1,1-.85,7.32,7.32,0,0,1,1.53-.56c.62-.17,1.39-.41,2.29-.71.72-.23,1.73-.48,3-.77s2.79-.57,4.47-.85,3.51-.56,5.48-.82,3.95-.5,6-.71,4-.38,6-.51,3.82-.2,5.55-.2A61,61,0,0,1,557.46,48a29,29,0,0,1,10.15,4.06,20.55,20.55,0,0,1,6.94,7.71A25.67,25.67,0,0,1,577.13,72ZM535.69,89a2.43,2.43,0,0,0,.23,1.1c.15.32.56.48,1.24.48a12.25,12.25,0,0,0,3.77-.71,18.66,18.66,0,0,0,4.37-2.12,20.19,20.19,0,0,0,4.05-3.52,14.25,14.25,0,0,0,2.84-4.93,16.33,16.33,0,0,0,.65-2.89,29.28,29.28,0,0,0,.25-4.14,6.55,6.55,0,0,0-2.75-5.84,12.47,12.47,0,0,0-7.17-1.87c-.49,0-1,0-1.67.09a9.64,9.64,0,0,0-1.76.31,6.5,6.5,0,0,0-1.39.54,1.07,1.07,0,0,0-.62.82l-.11,1.25c0,.49-.12,1.29-.23,2.4s-.24,2.4-.37,3.83-.26,2.95-.39,4.54-.27,3.1-.4,4.53-.25,2.71-.34,3.8S535.73,88.5,535.69,89Z"/><path class="cls-1" d="M637.34,119.46a1.64,1.64,0,0,0-.06.42v.37a5.23,5.23,0,0,0,.46,2.35,6.13,6.13,0,0,0,1,1.53,9.78,9.78,0,0,0,1,1c.3.24.45.46.45.65,0,.53-.56,1-1.7,1.47l-15.25,6.52s-.17.06-.39.06-.61-.26-.91-.79a12,12,0,0,1-.88-2c-.28-.81-.55-1.68-.79-2.6s-.47-1.79-.65-2.58a23.27,23.27,0,0,1-7.72,6.06,19.2,19.2,0,0,1-8.21,1.93,21.89,21.89,0,0,1-9.3-2.1,24.78,24.78,0,0,1-8-6,29.66,29.66,0,0,1-5.64-9.38A34,34,0,0,1,578.55,104a44.31,44.31,0,0,1,2.35-14.8,37,37,0,0,1,6.38-11.51,28.63,28.63,0,0,1,9.38-7.45A25.38,25.38,0,0,1,608,67.58a19.25,19.25,0,0,1,8.05,1.73,34.33,34.33,0,0,1,7.2,4.45,20.25,20.25,0,0,0,.4-2.72,5.87,5.87,0,0,1,.25-1.59,1.19,1.19,0,0,1,.77-.76,8.19,8.19,0,0,1,1.87-.32q4.08-.56,8.13-1c2.71-.32,5.53-.56,8.48-.71Zm-17-21.38a57.48,57.48,0,0,0,.76-6.09c.14-1.91.24-3.66.32-5.25-.61-.45-1.26-.92-2-1.41a21.76,21.76,0,0,0-2.27-1.39,12.91,12.91,0,0,0-2.55-1,9.59,9.59,0,0,0-2.81-.4,7.1,7.1,0,0,0-5.13,2,15,15,0,0,0-3.34,4.87,25.16,25.16,0,0,0-1.81,6.12,35.34,35.34,0,0,0-.54,5.73q0,9,2.35,13.13t6.55,4.16a9.28,9.28,0,0,0,3.8-1,21.19,21.19,0,0,0,4.25-2.67Z"/><path class="cls-1" d="M696.59,84.7l-2.67-.25a30.88,30.88,0,0,0-3.12-.14,31.52,31.52,0,0,0-5.07.42,14.37,14.37,0,0,0-4.79,1.67,11.47,11.47,0,0,0-5.84,9.07c-.27,2.8-.48,5.1-.65,6.89s-.3,3.27-.37,4.43-.14,2.07-.2,2.77-.1,1.35-.14,2c0,.15,0,.57-.09,1.25s-.14,1.47-.25,2.38-.22,1.89-.31,2.95-.2,2-.32,2.94-.19,1.7-.25,2.38-.09,1.1-.09,1.25,0,.56,0,.77,0,.4,0,.59a.93.93,0,0,1-.42.77,7,7,0,0,1-1.9.71l-15,5.38-1.64.57a6.17,6.17,0,0,1-2,.34,2.36,2.36,0,0,1-1.38-.4,1.5,1.5,0,0,1-.6-1.36l4.88-56.18a11.79,11.79,0,0,1,.42-2.58,1.61,1.61,0,0,1,1.28-.94c3.43-.68,7-1.37,10.65-2.07a88.86,88.86,0,0,0,10.66-2.69c.31,0,.49,0,.54.14a.83.83,0,0,1,.09.43,2.92,2.92,0,0,1,0,.34c0,.15-.08.49-.17,1s-.23,1.33-.4,2.41-.41,2.58-.71,4.51a41.41,41.41,0,0,1,5.76-3.75,55,55,0,0,1,6.32-2.92,49.08,49.08,0,0,1,6.12-1.92,22.13,22.13,0,0,1,5.16-.71Z"/><path class="cls-1" d="M747.84,84.7l-2.67-.25a30.88,30.88,0,0,0-3.12-.14,31.52,31.52,0,0,0-5.07.42,14.37,14.37,0,0,0-4.79,1.67,11.47,11.47,0,0,0-5.84,9.07c-.27,2.8-.48,5.1-.65,6.89s-.3,3.27-.37,4.43-.14,2.07-.2,2.77-.1,1.35-.14,2c0,.15,0,.57-.09,1.25s-.14,1.47-.25,2.38-.22,1.89-.31,2.95-.2,2-.31,2.94-.2,1.7-.26,2.38-.08,1.1-.08,1.25,0,.56,0,.77,0,.4,0,.59a.93.93,0,0,1-.42.77,7,7,0,0,1-1.9.71l-15,5.38-1.64.57a6.15,6.15,0,0,1-2,.34,2.39,2.39,0,0,1-1.39-.4,1.5,1.5,0,0,1-.6-1.36l4.88-56.18a11.79,11.79,0,0,1,.42-2.58,1.61,1.61,0,0,1,1.28-.94q5.16-1,10.66-2.07a89.18,89.18,0,0,0,10.65-2.69c.31,0,.49,0,.54.14a.83.83,0,0,1,.09.43,2.92,2.92,0,0,1,0,.34c0,.15-.08.49-.17,1s-.23,1.33-.4,2.41-.4,2.58-.71,4.51a41.41,41.41,0,0,1,5.76-3.75,55.8,55.8,0,0,1,6.32-2.92,49.6,49.6,0,0,1,6.12-1.92,22.13,22.13,0,0,1,5.16-.71Z"/><path class="cls-1" d="M782.48,133.8a35.09,35.09,0,0,1-14-2.61,30,30,0,0,1-10.12-6.94,28.48,28.48,0,0,1-6.13-10,34.15,34.15,0,0,1-2-11.71,33.45,33.45,0,0,1,2-11.54,33,33,0,0,1,5.55-9.8A32,32,0,0,1,777.26,70c.61,0,.91-.17.91-.4a4.79,4.79,0,0,0-.14-1.16,3.56,3.56,0,0,1-.15-.93,1.25,1.25,0,0,1,.23-.86.7.7,0,0,1,.51-.22,60.34,60.34,0,0,1,18.43,2.46,34.35,34.35,0,0,1,12.36,6.72,25,25,0,0,1,6.91,10,35.15,35.15,0,0,1,2.16,12.41,38,38,0,0,1-2.84,15.08,32.84,32.84,0,0,1-7.74,11.23,33.49,33.49,0,0,1-11.45,7A40,40,0,0,1,782.48,133.8ZM772,101.94a28.76,28.76,0,0,0,.65,6.06,17.21,17.21,0,0,0,2.15,5.45,12,12,0,0,0,4,3.94,11.34,11.34,0,0,0,6.06,1.5,10.6,10.6,0,0,0,4.57-1.16,11.7,11.7,0,0,0,3.37-2.72,16,16,0,0,0,2.35-3.77,25.53,25.53,0,0,0,1.48-4.34,35.27,35.27,0,0,0,.76-4.4,38,38,0,0,0,.23-3.91,19.62,19.62,0,0,0-.88-5.78,15.45,15.45,0,0,0-2.58-5,13.29,13.29,0,0,0-4.22-3.49A12.39,12.39,0,0,0,784.06,83a8.45,8.45,0,0,0-5.72,2,14.8,14.8,0,0,0-3.71,5,25.87,25.87,0,0,0-2,6.2A31.68,31.68,0,0,0,772,101.94Z"/><path class="cls-1" d="M855.84,87.14q-.8,6-1.5,11.88t-.88,11.08a16.61,16.61,0,0,0,.34,3.69,5.86,5.86,0,0,0,1,2.32,3.67,3.67,0,0,0,1.56,1.22,5.26,5.26,0,0,0,2,.37,16.45,16.45,0,0,0,4-.54,34.77,34.77,0,0,0,4.31-1.39,10.11,10.11,0,0,1,1.16-.42,2.81,2.81,0,0,1,.82-.15.76.76,0,0,1,.77.51,9.9,9.9,0,0,1,.39,1.79c.14.85.33,2,.6,3.43s.7,3.25,1.3,5.44q.06.28.09.48a2.62,2.62,0,0,1,0,.37,1.21,1.21,0,0,1-.6,1.14,12.61,12.61,0,0,1-2,.79c-1.56.53-3.19,1.07-4.91,1.62s-3.42,1-5.1,1.5-3.3.82-4.85,1.1a22.49,22.49,0,0,1-4.08.43q-9.47,0-13.81-4.71t-4.33-14.34c0-1.09,0-2.22.11-3.37s.17-2.36.28-3.6q.57-5.67,1-10.75t.87-9.72h-6a27,27,0,0,1-4.42-.25c-.91-.17-1.36-.52-1.36-1a4.17,4.17,0,0,1,.57-1.22c.37-.66.86-1.46,1.44-2.38l1.9-3c.68-1.06,1.33-2.05,2-3L830.21,74c.46-.68.74-1.09.85-1.24h4q.51-4.3.82-7.23c.21-1.95.38-3.56.51-4.85s.26-2.27.37-3a8.16,8.16,0,0,1,.37-1.56,1.13,1.13,0,0,1,.51-.66,5.11,5.11,0,0,1,.82-.25c1.7-.34,3.34-.65,4.93-.94s3.18-.57,4.76-.88,3.21-.65,4.85-1,3.36-.86,5.13-1.39a.56.56,0,0,0,.23,0,.56.56,0,0,1,.23,0c.45,0,.68.15.68.45v.12q-.28,3.12-.88,8.67T857.09,72.8h15.19a1.45,1.45,0,0,1,.88.31,1.23,1.23,0,0,1,.42,1,10.5,10.5,0,0,1-.68,2Q872.23,78,871,80.79l-2.05,4.59a3.8,3.8,0,0,1-.82,1.25,3,3,0,0,1-1.73.51Z"/><path class="cls-2" d="M169.12,103.87A83,83,0,1,1,109.5,7.42a14.31,14.31,0,0,1,9.43,8A23,23,0,0,0,124.07,23c3.16,3,7.18,5,10.5,7.88,14.3,12.31,11.31,35.61,21.33,51.61,3.46,5.54,8.45,10.1,11.32,16A24.73,24.73,0,0,1,169.12,103.87Z"/><path class="cls-3" d="M87.6,175.22h-.47A87.61,87.61,0,1,1,110.69,3.07a18.71,18.71,0,0,1,12.38,10.6,18.28,18.28,0,0,0,4.13,6,38.62,38.62,0,0,0,5.11,3.88,54.89,54.89,0,0,1,5.2,3.83c9.33,8,12.07,19.72,14.72,31,1.86,7.95,3.62,15.45,7.48,21.62a70.82,70.82,0,0,0,4.62,6.23,54.61,54.61,0,0,1,6.94,10.16,29.32,29.32,0,0,1,2.25,6.45l.2.93-.18.93A87.69,87.69,0,0,1,87.6,175.22ZM87.61,9a78.6,78.6,0,0,0-.43,157.2h.42A78.66,78.66,0,0,0,164.5,104a19.28,19.28,0,0,0-1.33-3.57,47.17,47.17,0,0,0-5.87-8.48,74.45,74.45,0,0,1-5.22-7.08c-4.66-7.44-6.68-16-8.63-24.34-2.42-10.35-4.72-20.13-11.82-26.25a49.13,49.13,0,0,0-4.38-3.2,47,47,0,0,1-6.3-4.85,27.44,27.44,0,0,1-6.15-8.94,9.87,9.87,0,0,0-6.48-5.48A78.85,78.85,0,0,0,87.61,9Z"/><path class="cls-3" d="M128.27,84.11c-.09.43-.19.86-.3,1.28l-21-4.14,4.4-22.34A21.46,21.46,0,0,1,128.27,84.11Z"/><path class="cls-3" d="M128,85.68h-.06l-21-4.14a.31.31,0,0,1-.19-.13.26.26,0,0,1,0-.21l4.4-22.34a.29.29,0,0,1,.34-.23,21.75,21.75,0,0,1,17.13,25.54h0c-.09.46-.19.9-.3,1.3A.29.29,0,0,1,128,85.68ZM107.3,81l20.46,4c.08-.32.15-.65.22-1h0a21.17,21.17,0,0,0-16.39-24.8Zm21,3.08Z"/><path class="cls-3" d="M122.78,88.15a16.87,16.87,0,0,1-19.6,12.29l3.07-15.55Z"/><path class="cls-3" d="M106.45,101.05a17.22,17.22,0,0,1-3.33-.32.29.29,0,0,1-.18-.13.26.26,0,0,1,0-.21L106,84.84a.31.31,0,0,1,.13-.19.25.25,0,0,1,.21,0l16.54,3.26A.28.28,0,0,1,123,88a.28.28,0,0,1,0,.22A17.19,17.19,0,0,1,106.45,101.05Zm-2.93-.84a16.59,16.59,0,0,0,18.9-11.84l-16-3.14Z"/><path class="cls-4" d="M106.93,55.93l-12.8,65a1,1,0,0,1-.78.79h0a35.47,35.47,0,0,1-7.59.75A36.55,36.55,0,0,1,50.1,78.81a37.09,37.09,0,0,1,2.29-7.41,36.56,36.56,0,0,1,54.54-15.47Z"/><path class="cls-3" d="M86,124.75h-.27A38.92,38.92,0,0,1,48,94.33a39,39,0,0,1,2.25-23.84,38.9,38.9,0,0,1,43.2-22.74A38.64,38.64,0,0,1,108.26,54a2.31,2.31,0,0,1,.93,2.33l-12.8,65a3.3,3.3,0,0,1-2.55,2.59h0A38.38,38.38,0,0,1,86,124.75Zm-.07-73.13A34.11,34.11,0,0,0,73.43,54,34.2,34.2,0,0,0,52.36,79.26a33.81,33.81,0,0,0,.17,14.06A34.27,34.27,0,0,0,92,119.6L104.38,57a34,34,0,0,0-11.79-4.72A34.7,34.7,0,0,0,85.94,51.62Z"/><path class="cls-3" d="M46.63,98.71A2.3,2.3,0,0,1,44.37,96l3.47-17.57v0a2.3,2.3,0,1,1,4.52.89v0a33.72,33.72,0,0,0,.17,14,2.29,2.29,0,0,1-1,2.44c-1.17.76-2.34,1.58-3.47,2.46A2.29,2.29,0,0,1,46.63,98.71Z"/><path class="cls-3" d="M46.63,98.71a2.25,2.25,0,0,1-.44,0A2.32,2.32,0,0,1,44.37,96l3.47-17.59a2.3,2.3,0,1,1,4.52.89L48.89,96.85A2.3,2.3,0,0,1,46.63,98.71Z"/><circle class="cls-3" cx="84.75" cy="71.07" r="4.56"/><circle class="cls-4" cx="88.69" cy="71.96" r="1.87"/><path class="cls-5" d="M61,145,54.6,177.68a48.4,48.4,0,0,1-20.2-19.19l3.86-19.61a36.75,36.75,0,0,0,13.4,5.51A36.36,36.36,0,0,0,61,145Z"/><path class="cls-3" d="M54.6,180a2.41,2.41,0,0,1-1-.25A50.64,50.64,0,0,1,32.4,159.63a2.26,2.26,0,0,1-.26-1.59L36,138.44A2.31,2.31,0,0,1,39.54,137a36.28,36.28,0,0,0,3.69,2.15,34.63,34.63,0,0,0,8.88,3,34.18,34.18,0,0,0,8.79.6,2.3,2.3,0,0,1,2.39,2.75l-6.43,32.65a2.29,2.29,0,0,1-1.25,1.62A2.24,2.24,0,0,1,54.6,180ZM36.83,158.08A46.05,46.05,0,0,0,53,174.16l5.27-26.76a40.27,40.27,0,0,1-7-.74,39.79,39.79,0,0,1-10-3.43c-.43-.22-.86-.44-1.28-.68Z"/><path class="cls-6" d="M94,121.45C88.7,134.88,75.31,144.2,61,145a36.36,36.36,0,0,1-9.37-.64,36.75,36.75,0,0,1-13.4-5.51l8.37-42.47Q48.4,95,50.28,93.82a36.57,36.57,0,0,0,35.47,28.62A42.2,42.2,0,0,0,94,121.45Z"/><path class="cls-3" d="M58.86,147.4A39.28,39.28,0,0,1,37,140.8a2.3,2.3,0,0,1-1-2.36L44.37,96a2.32,2.32,0,0,1,.85-1.37c1.24-1,2.52-1.88,3.81-2.71a2.31,2.31,0,0,1,3.5,1.44,34.29,34.29,0,0,0,33.23,26.82,38.45,38.45,0,0,0,7.79-1,2.3,2.3,0,0,1,2.23.78,2.27,2.27,0,0,1,.38,2.33c-5.58,14.08-19.64,24.14-35,25C60.4,147.38,59.63,147.4,58.86,147.4Zm-18-9.62c.78.47,1.58.92,2.4,1.33a34.63,34.63,0,0,0,8.88,3,34.18,34.18,0,0,0,8.79.6,36.17,36.17,0,0,0,29.15-18.28,32.74,32.74,0,0,1-4.31.3A38.93,38.93,0,0,1,48.9,97.58l-.18.13Z"/><line class="cls-7" x1="78.52" y1="50.61" x2="78.34" y2="49.18"/><rect class="cls-3" x="77.86" y="49.18" width="1.15" height="1.44" transform="translate(-5.62 10.19) rotate(-7.18)"/><circle class="cls-7" cx="41.41" cy="47.24" r="1.94"/><circle class="cls-8" cx="67.16" cy="36.43" r="1.94"/><circle class="cls-7" cx="97.26" cy="35.89" r="1.94"/><circle class="cls-7" cx="86.81" cy="19.2" r="1.94"/><circle class="cls-7" cx="76.58" cy="25.12" r="1.94"/><circle class="cls-7" cx="129.93" cy="47.24" r="1.94"/><circle class="cls-7" cx="137.34" cy="60.85" r="1.94"/><circle class="cls-7" cx="141.22" cy="80.75" r="1.94"/><circle class="cls-7" cx="154.81" cy="100.77" r="1.94"/><circle class="cls-7" cx="150.07" cy="115.18" r="1.94"/><circle class="cls-7" cx="139.28" cy="124.38" r="1.94"/><circle class="cls-7" cx="138.2" cy="140.04" r="1.94"/><circle class="cls-7" cx="123.84" cy="128.91" r="1.94"/><circle class="cls-7" cx="136.26" cy="89.55" r="1.94"/><circle class="cls-7" cx="123.84" cy="113.87" r="1.94"/><circle class="cls-7" cx="132.02" cy="110.22" r="1.94"/><circle class="cls-7" cx="114.27" cy="132.79" r="1.94"/><circle class="cls-7" cx="121.91" cy="141.97" r="1.94"/><circle class="cls-7" cx="114.92" cy="150.69" r="1.94"/><circle class="cls-8" cx="61.8" cy="49.18" r="1.94"/><circle class="cls-7" cx="108.87" cy="29" r="1.94"/><path class="cls-3" d="M107,54.73c-33.85-11.35-56,17.42-56,17.42-4-15,6.56-33.46,21.6-37.44A28.18,28.18,0,0,1,107,54.73Z"/><path class="cls-3" d="M50.92,73.88a2,2,0,0,1-.34,0,1.73,1.73,0,0,1-1.33-1.25C45,56.5,56.08,37.28,72.08,33a29.93,29.93,0,0,1,36.56,21.25,1.72,1.72,0,0,1-.49,1.7,1.74,1.74,0,0,1-1.73.38c-13.5-4.53-26.68-3.1-39.18,4.24a57.38,57.38,0,0,0-14.95,12.6A1.72,1.72,0,0,1,50.92,73.88ZM79.73,35.5a26.31,26.31,0,0,0-6.76.88C60,39.8,50.45,55,52,68.35A62.9,62.9,0,0,1,65.37,57.7a49.78,49.78,0,0,1,38.92-5.58A26.52,26.52,0,0,0,79.73,35.5Z"/><circle class="cls-3" cx="71.07" cy="29.28" r="5.62"/><circle class="cls-4" cx="71.58" cy="31.15" r="3.69"/></svg>